# xmcd
#
# Track frame offsets:
#	150
#	12410
#	27562
#	45012
#	62875
#	81255
#	94020
#	107957
#	129780
#	145892
#	162662
#	179865
#	193625
#	208442
#	223560
#	239665
#
# Disc length: 3421 seconds
#
# Revision: 2
# Processed by: cddbd v1.4PL0 Copyright (c) Steve Scherf et al.
# Submitted via: audiograbber 1.80
#
DISCID=f20d5b10
DTITLE=Jonny Hill - Ohne Grenzen
DYEAR=1900
DGENRE=
TTITLE0=Wenn ich nur fliegen könnte
TTITLE1=Seit Du wieder bei mir bist
TTITLE2=Sie waren sich zu spät begegnet
TTITLE3=Von Liebe keine Rede
TTITLE4=Sie macht was sie will
TTITLE5=Es ist niemals zu spät
TTITLE6=Da sind so viele Fragen
TTITLE7=Ruf Teddybär Eins-Vier
TTITLE8=Seine Freunde sind die Träume
TTITLE9=Nie wieder einsam
TTITLE10=Express-Container Paris
TTITLE11=Alles gehabt und alles verloren
TTITLE12=Augen, die voll Hunger sind
TTITLE13=Die Nacht kommt
TTITLE14=Tief in Dir
TTITLE15=Rosen für Mama
EXTD=Koch International CD 322389 GI Club-Edition 57983/9 AAD
EXTT0=
EXTT1=
EXTT2=
EXTT3=
EXTT4=
EXTT5=
EXTT6=
EXTT7=
EXTT8=
EXTT9=
EXTT10=
EXTT11=
EXTT12=
EXTT13=
EXTT14=
EXTT15=
PLAYORDER=
